<svg width="18" height="16" viewBox="0 0 18 16" fill="none" xmlns="http://www.w3.org/2000/svg">
<path fill-rule="evenodd" clip-rule="evenodd" d="M18 7.99999C18 8.4142 17.6642 8.74999 17.25 8.74999H2.56029L8.03061 14.2194C8.32366 14.5124 8.32366 14.9876 8.03061 15.2806C7.73755 15.5737 7.26241 15.5737 6.96935 15.2806L0.219355 8.53061C0.0785218 8.38994 -0.000610352 8.19905 -0.000610352 7.99999C-0.000610352 7.80093 0.0785218 7.61004 0.219355 7.46936L6.96935 0.719365C7.26241 0.426309 7.73755 0.426309 8.03061 0.719365C8.32366 1.01242 8.32366 1.48756 8.03061 1.78061L2.56029 7.24999H17.25C17.6642 7.24999 18 7.58578 18 7.99999Z" fill="#0D141C"/>
</svg>
