<svg width="22" height="21" viewBox="0 0 22 21" fill="none" xmlns="http://www.w3.org/2000/svg">
<path fill-rule="evenodd" clip-rule="evenodd" d="M21.425 8.12094C21.2393 7.54864 20.7296 7.14267 20.1303 7.08969L14.5625 6.60969L12.38 1.41969C12.1476 0.862832 11.6034 0.500187 11 0.500187C10.3966 0.500187 9.85235 0.862832 9.62 1.41969L7.44406 6.60969L1.86969 7.0925C1.26788 7.14307 0.75509 7.54962 0.568599 8.12404C0.382108 8.69846 0.558291 9.32869 1.01562 9.72313L5.24469 13.4187L3.97719 18.9069C3.84016 19.494 4.06802 20.1062 4.55562 20.4608C5.04322 20.8155 5.69578 20.8437 6.21219 20.5325L10.9934 17.6262L15.785 20.5325C16.3014 20.8437 16.954 20.8155 17.4416 20.4608C17.9292 20.1062 18.157 19.494 18.02 18.9069L16.7534 13.4131L20.9816 9.72313C21.4389 9.3273 21.6137 8.69556 21.425 8.12094ZM19.9981 8.58969L15.77 12.2797C15.3506 12.6445 15.1674 13.2112 15.2938 13.7525L16.5641 19.25L11.7762 16.3438C11.3001 16.0538 10.7018 16.0538 10.2256 16.3438L5.44438 19.25L6.70625 13.7563C6.83263 13.215 6.64936 12.6482 6.23 12.2834L2 8.59531C1.99966 8.59251 1.99966 8.58968 2 8.58687L7.5725 8.105C8.12697 8.05613 8.60878 7.70424 8.82406 7.19094L11 2.0075L13.175 7.19094C13.3903 7.70424 13.8721 8.05613 14.4266 8.105L20 8.58687C20 8.58687 20 8.5925 20 8.59344L19.9981 8.58969Z" fill="#0D141C"/>
</svg>
